<?xml version="1.0" encoding="UTF-8" standalone="no"?>
<!-- Created with Inkscape (http://www.inkscape.org/) -->

<svg
   width="192"
   height="256"
   viewBox="0 0 50.799999 67.733332"
   version="1.1"
   id="svg1"
   inkscape:version="1.4 (86a8ad7, 2024-10-11)"
   sodipodi:docname="example 1.svg"
   inkscape:export-filename="example 1.png"
   inkscape:export-xdpi="96"
   inkscape:export-ydpi="96"
   xmlns:inkscape="http://www.inkscape.org/namespaces/inkscape"
   xmlns:sodipodi="http://sodipodi.sourceforge.net/DTD/sodipodi-0.dtd"
   xmlns="http://www.w3.org/2000/svg"
   xmlns:svg="http://www.w3.org/2000/svg">
  <sodipodi:namedview
     id="namedview1"
     pagecolor="#505050"
     bordercolor="#ffffff"
     borderopacity="1"
     inkscape:showpageshadow="0"
     inkscape:pageopacity="0"
     inkscape:pagecheckerboard="1"
     inkscape:deskcolor="#505050"
     inkscape:document-units="px"
     inkscape:zoom="2.1561279"
     inkscape:cx="113.86152"
     inkscape:cy="157.92198"
     inkscape:window-width="1366"
     inkscape:window-height="697"
     inkscape:window-x="-8"
     inkscape:window-y="-8"
     inkscape:window-maximized="1"
     inkscape:current-layer="layer1" />
  <defs
     id="defs1" />
  <g
     inkscape:label="Layer 1"
     inkscape:groupmode="layer"
     id="layer1">
    <rect
       style="fill:#552200;fill-opacity:0.976471;stroke-width:0.0221547"
       id="rect3"
       width="16.908894"
       height="16.877249"
       x="16.953077"
       y="0.056084573" />
    <path
       style="fill:#916f6f;fill-opacity:0.976471;stroke-width:0.0221547"
       d="M 21.78332,11.463321 18.000565,7.5625773"
       id="path2" />
    <path
       style="fill:#008000;fill-opacity:0.976471;stroke-width:0.0221547"
       d="m 16.933333,0.0668718 0.0033,8.0089609 1.773166,-3.284837 1.339725,5.1325577 1.615552,-3.9007437 2.048992,5.1325573 1.694359,-4.9785807 -0.0083,-6.15906974 z"
       id="path3"
       sodipodi:nodetypes="ccccccccc" />
    <path
       style="fill:#008000;fill-opacity:0.976471;stroke-width:0.0221547"
       d="M 33.866666,0.04915523 33.863335,8.0581157 32.090169,4.7732792 30.750443,9.9058366 29.134892,6.0050932 27.085901,11.13765 25.391542,6.1590698 25.399874,0 Z"
       id="path3-8"
       sodipodi:nodetypes="ccccccccc" />
    <rect
       style="fill:#552200;fill-opacity:0.976471;stroke-width:0.0214693"
       id="rect3-5"
       width="15.99584"
       height="16.753841"
       x="33.885345"
       y="0.055674355" />
    <path
       style="fill:#916f6f;fill-opacity:0.976471;stroke-width:0.0214693"
       d="M 38.454761,11.379502 34.876268,7.5072798"
       id="path2-5" />
    <path
       style="fill:#008000;fill-opacity:0.976471;stroke-width:0.0214693"
       d="m 33.866666,0.06638183 0.0032,7.95039967 1.677418,-3.2608177 1.267385,5.0950274 1.528314,-3.8722192 1.938349,5.095028 1.602864,-4.9421795 -0.0079,-6.11403354 z"
       id="path3-1"
       sodipodi:nodetypes="ccccccccc" />
    <path
       style="fill:#008000;fill-opacity:0.976471;stroke-width:0.0226605"
       d="M 50.799999,0.04879487 50.731429,16.701123 48.667528,16.933333 45.824298,16.81946 43.926503,13.192363 45.280295,8.9113684 41.868141,6.1140335 41.876924,0 Z"
       id="path3-8-7"
       sodipodi:nodetypes="ccccccccc" />
    <rect
       style="fill:#552200;fill-opacity:0.976471;stroke-width:0.0220735"
       id="rect3-5-2"
       width="16.908894"
       height="16.753839"
       x="-16.913589"
       y="0.055674177"
       transform="scale(-1,1)" />
    <path
       style="fill:#008000;fill-opacity:0.976471;stroke-width:0.0220735"
       d="M 16.933333,0.06638183 16.929999,8.0167808 15.156834,4.7559634 13.817106,9.8509905 12.201555,5.9787716 10.152563,11.073799 8.4582062,6.13162 8.4665406,0.01758696 Z"
       id="path3-1-7"
       sodipodi:nodetypes="ccccccccc" />
    <path
       style="fill:#008000;fill-opacity:0.976471;stroke-width:0.0220735"
       d="M 0,0.04879487 0.06506633,16.701123 2.0234301,16.933333 4.7212725,16.819459 6.5220211,13.192361 5.2374534,8.9113677 8.4751289,6.114033 8.4667946,0 Z"
       id="path3-8-7-6"
       sodipodi:nodetypes="ccccccccc" />
    <rect
       style="fill:#552200;fill-opacity:0.976471;stroke-width:0.0221547"
       id="rect3-52"
       width="16.908894"
       height="16.877249"
       x="16.953077"
       y="-50.743916"
       transform="scale(1,-1)" />
    <path
       style="fill:#916f6f;fill-opacity:0.976471;stroke-width:0.0221547"
       d="m 21.78332,39.33668 -3.782755,3.900744"
       id="path2-7" />
    <path
       style="fill:#008000;fill-opacity:0.976471;stroke-width:0.0221547"
       d="m 16.933333,50.733129 0.0033,-8.008961 1.773166,3.284837 1.339725,-5.132557 1.615552,3.900743 2.048992,-5.132557 1.694359,4.978581 -0.0083,6.159069 z"
       id="path3-6"
       sodipodi:nodetypes="ccccccccc" />
    <path
       style="fill:#008000;fill-opacity:0.976471;stroke-width:0.0221547"
       d="m 33.866666,50.750846 -0.0033,-8.008961 -1.773166,3.284837 -1.339726,-5.132558 -1.615551,3.900744 -2.048991,-5.132557 -1.694359,4.97858 0.0083,6.15907 z"
       id="path3-8-1"
       sodipodi:nodetypes="ccccccccc" />
    <rect
       style="fill:#552200;fill-opacity:0.976471;stroke-width:0.0214693"
       id="rect3-5-4"
       width="15.99584"
       height="16.753841"
       x="33.885345"
       y="-50.744328"
       transform="scale(1,-1)" />
    <path
       style="fill:#916f6f;fill-opacity:0.976471;stroke-width:0.0214693"
       d="m 38.454761,39.420499 -3.578493,3.872222"
       id="path2-5-2" />
    <path
       style="fill:#008000;fill-opacity:0.976471;stroke-width:0.0214693"
       d="m 33.866666,50.733619 0.0032,-7.950399 1.677418,3.260817 1.267385,-5.095027 1.528314,3.872219 1.938349,-5.095028 1.602864,4.94218 -0.0079,6.114033 z"
       id="path3-1-3"
       sodipodi:nodetypes="ccccccccc" />
    <path
       style="fill:#008000;fill-opacity:0.976471;stroke-width:0.0226605"
       d="m 50.799999,50.751206 -0.06857,-16.652328 -2.063901,-0.23221 -2.84323,0.113873 -1.897795,3.627097 1.353792,4.280995 -3.412154,2.797335 0.0088,6.114033 z"
       id="path3-8-7-2"
       sodipodi:nodetypes="ccccccccc" />
    <rect
       style="fill:#552200;fill-opacity:0.976471;stroke-width:0.0220735"
       id="rect3-5-2-2"
       width="16.908894"
       height="16.753839"
       x="-16.913588"
       y="-50.744328"
       transform="scale(-1)" />
    <path
       style="fill:#008000;fill-opacity:0.976471;stroke-width:0.0220735"
       d="m 16.933333,50.733619 -0.0033,-7.950399 -1.773165,3.260818 -1.339728,-5.095028 -1.615551,3.872219 -2.048992,-5.095027 -1.694357,4.942179 0.0083,6.114033 z"
       id="path3-1-7-1"
       sodipodi:nodetypes="ccccccccc" />
    <path
       style="fill:#008000;fill-opacity:0.976471;stroke-width:0.0220735"
       d="m 0,50.751206 0.06507,-16.652328 1.958364,-0.23221 2.697842,0.113874 1.800749,3.627098 -1.284568,4.280993 3.237676,2.797335 -0.0083,6.114033 z"
       id="path3-8-7-6-6"
       sodipodi:nodetypes="ccccccccc" />
    <rect
       style="fill:#552200;fill-opacity:0.976471;stroke-width:0.0220864"
       id="rect3-5-2-3"
       width="16.928633"
       height="16.753839"
       x="-16.933332"
       y="-33.810993"
       transform="scale(-1)" />
    <path
       style="fill:#008000;fill-opacity:0.976471;stroke-width:0.0220864"
       d="m 0,33.817871 0.06514229,-16.652328 1.96064991,-0.23221 2.7009917,0.113874 1.8028507,3.627097 -1.2860672,4.280996 3.241455,2.797333 -3.5669955,5.991321 z"
       id="path3-8-7-6-2"
       sodipodi:nodetypes="ccccccccc" />
    <rect
       style="fill:#552200;fill-opacity:0.976471;stroke-width:0.0222074"
       id="rect3-5-2-3-5"
       width="16.933332"
       height="16.933332"
       x="33.866665"
       y="-33.866665"
       transform="scale(1,-1)" />
    <path
       style="fill:#008000;fill-opacity:0.976471;stroke-width:0.0220864"
       d="m 50.799998,33.817871 -0.06514,-16.652328 -1.96065,-0.23221 -2.700991,0.113874 -1.802849,3.627097 1.286065,4.280995 -3.241455,2.797333 3.689668,6.236746 z"
       id="path3-8-7-6-2-7"
       sodipodi:nodetypes="ccccccccc" />
    <rect
       style="fill:#552200;fill-opacity:0.976471;stroke-width:0.0177334"
       id="rect3-5-2-3-5-8"
       width="16.933332"
       height="10.79772"
       x="33.866665"
       y="-67.73333"
       transform="scale(1,-1)" />
    <path
       style="fill:#008000;fill-opacity:0.976471;stroke-width:0.0220864"
       d="m 50.577982,57.04503 -16.326889,-6.152051 -0.169359,2.585798 0.511994,6.468996 4.267053,3.57698 4.123838,-0.283503 3.090679,-1.8231 4.619958,-0.119539 z"
       id="path3-8-7-6-2-7-8"
       sodipodi:nodetypes="ccccccccc" />
    <rect
       style="fill:#552200;fill-opacity:0.976471;stroke-width:0.0177823"
       id="rect3-5-2-3-5-8-5"
       width="16.933332"
       height="10.857336"
       x="-16.933332"
       y="-67.73333"
       transform="scale(-1)" />
    <path
       style="fill:#008000;fill-opacity:0.976471;stroke-width:0.0221473"
       d="m 0.2220167,56.986017 16.3268883,-6.186018 0.169359,2.600075 -0.511994,6.504712 -4.267053,3.59673 -4.1238371,-0.285069 -3.0906792,-1.833165 -4.619958,-0.120199 z"
       id="path3-8-7-6-2-7-8-1"
       sodipodi:nodetypes="ccccccccc" />
  </g>
</svg>
